<svg xmlns="http://www.w3.org/2000/svg" xmlns:xlink="http://www.w3.org/1999/xlink" width="32.243" height="24.568" viewBox="0 0 32.243 24.568">
  <defs>
    <clipPath id="clip-path">
      <rect id="Rectangle_31" data-name="Rectangle 31" width="32.243" height="24.568" transform="translate(0 0)" fill="none"/>
    </clipPath>
  </defs>
  <g id="Group_253" data-name="Group 253" transform="translate(0 0)">
    <g id="Group_252" data-name="Group 252" clip-path="url(#clip-path)">
      <path id="Path_815" data-name="Path 815" d="M27.31,2.055A26.452,26.452,0,0,0,20.659,0a16.827,16.827,0,0,0-.851,1.749,24.953,24.953,0,0,0-7.372,0A18.883,18.883,0,0,0,11.562,0,26.235,26.235,0,0,0,4.905,2.064,27.183,27.183,0,0,0,.136,20.447,26.745,26.745,0,0,0,8.3,24.565a19.939,19.939,0,0,0,1.749-2.836A17.307,17.307,0,0,1,7.3,20.415c.229-.173.451-.347.664-.522a19.086,19.086,0,0,0,16.323,0c.219.181.446.356.673.525a17.184,17.184,0,0,1-2.757,1.32,19.732,19.732,0,0,0,1.749,2.83,26.588,26.588,0,0,0,8.161-4.118,27.145,27.145,0,0,0-4.8-18.4m-16.547,14.7a3.1,3.1,0,0,1-2.9-3.247,3.087,3.087,0,0,1,2.9-3.259,3.069,3.069,0,0,1,2.9,3.25,3.093,3.093,0,0,1-2.9,3.256m10.712,0a3.1,3.1,0,0,1-2.9-3.247,3.087,3.087,0,0,1,2.9-3.259,3.065,3.065,0,0,1,2.9,3.25,3.093,3.093,0,0,1-2.9,3.256"/>
    </g>
  </g>
</svg>
