<svg xmlns="http://www.w3.org/2000/svg" xmlns:xlink="http://www.w3.org/1999/xlink" width="33.083" height="33.083" viewBox="0 0 33.083 33.083">
  <defs>
    <clipPath id="clip-path">
      <rect id="Rectangle_4" data-name="Rectangle 4" width="33.083" height="33.083" transform="translate(0 0)" fill="none"/>
    </clipPath>
  </defs>
  <g id="Group_5" data-name="Group 5" transform="translate(0 0)" clip-path="url(#clip-path)">
    <path id="Path_5" data-name="Path 5" d="M16.539,0A16.54,16.54,0,0,0,0,16.543v0A16.54,16.54,0,0,0,16.541,33.083h0A16.542,16.542,0,1,0,16.539,0M27.167,21.992a17.594,17.594,0,0,1-5.4,2.725,13.186,13.186,0,0,1-1.157-1.872,11.409,11.409,0,0,0,1.825-.874c-.151-.112-.3-.228-.446-.347a12.631,12.631,0,0,1-10.8,0c-.142.115-.288.231-.44.345a11.476,11.476,0,0,0,1.821.87,13.2,13.2,0,0,1-1.158,1.876,17.667,17.667,0,0,1-5.4-2.725A17.992,17.992,0,0,1,9.165,9.825a17.406,17.406,0,0,1,4.406-1.366,12.249,12.249,0,0,1,.578,1.158,16.546,16.546,0,0,1,4.878,0,11.374,11.374,0,0,1,.564-1.158,17.545,17.545,0,0,1,4.4,1.36,17.966,17.966,0,0,1,3.175,12.173"/>
    <path id="Path_6" data-name="Path 6" d="M13.043,15.24A2.043,2.043,0,0,0,11.126,17.4a2.048,2.048,0,0,0,1.917,2.148,2.047,2.047,0,0,0,1.919-2.154,2.031,2.031,0,0,0-1.919-2.151"/>
    <path id="Path_7" data-name="Path 7" d="M20.131,15.24A2.043,2.043,0,0,0,18.214,17.4a2.048,2.048,0,0,0,1.917,2.148,2.046,2.046,0,0,0,1.917-2.154,2.028,2.028,0,0,0-1.917-2.151"/>
  </g>
</svg>
