<svg xmlns="http://www.w3.org/2000/svg" xmlns:xlink="http://www.w3.org/1999/xlink" width="33.176" height="33.176" viewBox="0 0 33.176 33.176">
  <defs>
    <clipPath id="clip-path">
      <rect id="Rectangle_2" data-name="Rectangle 2" width="33.176" height="33.176" transform="translate(0 0)" fill="none"/>
    </clipPath>
  </defs>
  <g id="Group_1" data-name="Group 1" transform="translate(0 0)" clip-path="url(#clip-path)">
    <path id="Path_1" data-name="Path 1" d="M16.67,13.415a3.172,3.172,0,1,0,3.172,3.172,3.176,3.176,0,0,0-3.172-3.172"/>
    <path id="Path_2" data-name="Path 2" d="M20.6,8.425H12.574a4.152,4.152,0,0,0-4.148,4.148V20.6a4.152,4.152,0,0,0,4.148,4.148H20.6A4.153,4.153,0,0,0,24.751,20.6V12.573A4.153,4.153,0,0,0,20.6,8.425M16.671,21.539a4.952,4.952,0,1,1,4.952-4.952,4.957,4.957,0,0,1-4.952,4.952m5.241-9.058A1.179,1.179,0,1,1,23.091,11.3a1.179,1.179,0,0,1-1.179,1.179"/>
    <path id="Path_3" data-name="Path 3" d="M16.587,0A16.588,16.588,0,1,0,33.175,16.588,16.588,16.588,0,0,0,16.587,0M26.642,20.6a6.047,6.047,0,0,1-6.04,6.04H12.573a6.047,6.047,0,0,1-6.04-6.04V12.573a6.047,6.047,0,0,1,6.04-6.04H20.6a6.047,6.047,0,0,1,6.04,6.04Z"/>
  </g>
</svg>
