<svg xmlns="http://www.w3.org/2000/svg" xmlns:xlink="http://www.w3.org/1999/xlink" width="85.391" height="99.492" viewBox="0 0 85.391 99.492">
  <defs>
    <clipPath id="clip-path">
      <rect id="Rectangle_7" data-name="Rectangle 7" width="85.391" height="99.492" fill="#fff"/>
    </clipPath>
  </defs>
  <g id="Group_9" data-name="Group 9" clip-path="url(#clip-path)">
    <path id="Path_9" data-name="Path 9" d="M84.881,36.793A43.357,43.357,0,0,0,55.537,2,41.9,41.9,0,0,0,42.694,0C19.114,0,0,19.494,0,43.544,0,60.015,10.794,73.717,22.967,85.972c-.057-3.4-.08-10.719-.045-11.265a52.158,52.158,0,0,1-5.459-4.718,7.023,7.023,0,0,0-3.448-2.331c-.635-.2-1.276-.527-1.172-1.207.088-.584.852-1.042,1.734-1.082a6.307,6.307,0,0,1,3.515,1.424c3.1,1.979,3.659-1.261,3.03-4.1-.5-2.277-2.479-7.535-2.442-9.428.018-.943.725-1.23,1.26-.456,1.129,1.635,1.632,5.281,2.52,7.3.139.32.567,1.024.924.922.332-.093.262-.868.217-1.169-.06-.414-.119-.791-.176-1.128-.4-2.3-.885-4.455-1.08-6.789a2.387,2.387,0,0,1,.135-1.16c.262-.585.826-.838,1.272-.315a2.379,2.379,0,0,1,.42,1.032c.574,2.758,1,5.783,1.442,8.56.2,1.289.764,1.488.785-.145q-.074-1.211-.254-3.13-.127-1.472-.4-3.252a5.362,5.362,0,0,1-.094-1.473,1.3,1.3,0,0,1,.285-.7c.365-.415.977-.34,1.377.305A5.065,5.065,0,0,1,27.87,53.7q.264,2.111.418,3.825c.031.342.057.673.082.991q.12,1.473.178,2.285c.123,1.783.684,1.58,1.123.069.045-.164.092-.329.137-.5.428-1.61.742-3.379,1.239-4.886.013-.032.026-.063.04-.094l.019-.042.023-.047q.019-.037.038-.073l.022-.04.026-.043.022-.035.025-.037c.015-.021.03-.042.045-.061l.017-.021a.8.8,0,0,1,.819-.3c.281.186.422.656.43,1.407-.149,2.385-1.053,4.259-1.135,6.685.01.055.017.112.025.167a19.466,19.466,0,0,1-1.852,12.13c.019.488,1.412,13.013,2.59,19.823l1.952,1.848c.072-3.524.152-7.9.234-12.5a45.844,45.844,0,0,1,.1-5.79c.068-4,.131-7.974.182-11.509.1-7.109.166-12.461.127-12.8a25.008,25.008,0,0,1-5.3-16.253,22.825,22.825,0,0,0-1.674-4.807h0c-.2-.454-.391-.909-.575-1.373l-.027-.068-.039-.1-.065-.167-.027-.072-.073-.2-.022-.061q-.038-.105-.075-.211L26.9,30.8q-.038-.109-.075-.22l-.017-.051q-.037-.113-.073-.227l-.015-.048q-.036-.116-.071-.234l-.013-.045q-.035-.121-.069-.243l-.011-.041q-.034-.127-.067-.256l-.008-.031q-.036-.145-.07-.293a5.384,5.384,0,0,1-.066-.878,1.492,1.492,0,0,1,.391-1.138c.948-.586,1.281.019,1.772.8.061.112.12.225.18.339l.056.108c1.047,2.037,1.9,4.442,2.929,6.525.963,1.946,1.827,2.085,1.627-.367q-.089-1.115-.23-3.146-.212-2.849-.3-6.661a6.629,6.629,0,0,1,.385-2.891c.621-1.353,2.069-1.309,2.514.129a6.9,6.9,0,0,1,.174,2.023q-.021,2.483.111,4.515.148,2.649.3,4.312c.379,2.211,1.156,1.806,1.18,0,.053-3.879.024-8.089.275-11.974a3.18,3.18,0,0,1,.4-1.5c.541-.818,1.419-.614,1.928.117a3.039,3.039,0,0,1,.444,1.541c.215,3.218-.031,6.259-.125,9.481-.014.473-.018,1-.018,1.575,0,.419.063,1.487.57,1.534.543.05,1.016-1.01,1.151-1.478.867-2.957.826-8.031,2.126-10.526.615-1.181,1.709-.964,1.938.311.455,2.561-1.3,10.181-1.557,13.4-.311,4.006,1.2,8.27,5.308,4.827,1.256-1.052,2.579-2.4,4.835-2.791,1.3-.161,2.51.272,2.766,1.045.3.9-.57,1.5-1.455,1.926a10.615,10.615,0,0,0-4.544,4.005c-1.452,2.238-5.019,5.646-6.974,7.74.045.195.1.614.172,1.224.715,6.355,2.647,33.513,3.7,46.248,1.247-1.193,2.52-2.4,3.8-3.614,1.023-7.645,2.268-21.654,2.254-22.216a20.811,20.811,0,0,1-3.188-13.833c-.287-2.753-1.539-4.806-1.906-7.505q-.073-1.284.418-1.639c.586-.152,1.055.115,1.4.8.8,1.844,1.354,4.069,2.1,6,.652,1.683,1.354,1.864,1.369-.175q.006-.93.041-2.615.034-2.369.242-5.524a5.45,5.45,0,0,1,.529-2.357c.612-1.069,1.8-.921,2.067.3a5.778,5.778,0,0,1,0,1.684q-.2,2.05-.239,3.737-.074,2.2-.07,3.583c.152,1.855.822,1.582.973.1.328-3.2.613-6.678,1.1-9.866a2.6,2.6,0,0,1,.436-1.21c.506-.634,1.217-.4,1.582.246a2.533,2.533,0,0,1,.256,1.307c-.058,2.674-.483,5.166-.8,7.819q-.071.584-.131,1.3c-.031.345-.057,1.232.357,1.31.445.083.914-.755,1.059-1.131.932-2.375,1.27-6.568,2.527-8.528.594-.927,1.483-.663,1.577.408.191,2.151-1.821,8.306-2.264,10.942-.553,3.283.381,6.92,4.028,4.4a8.1,8.1,0,0,1,4.2-1.93c1.084-.033,2.053.42,2.208,1.078.178.765-.579,1.19-1.342,1.477a8.717,8.717,0,0,0-4.044,2.955c-1.365,1.733-4.559,4.272-6.326,5.849.1.7.2,8.938.3,12.868,11.982-12.136,22.5-25.7,22.5-41.961a44.72,44.72,0,0,0-.51-6.75" transform="translate(0 0.003)" fill="#fff" fill-rule="evenodd"/>
  </g>
</svg>
