<svg xmlns="http://www.w3.org/2000/svg" xmlns:xlink="http://www.w3.org/1999/xlink" width="185.624" height="82.081" viewBox="0 0 185.624 82.081">
  <defs>
    <clipPath id="clip-path">
      <rect id="Rectangle_44" data-name="Rectangle 44" width="185.624" height="82.081" fill="none"/>
    </clipPath>
  </defs>
  <g id="Group_309" data-name="Group 309" clip-path="url(#clip-path)">
    <path id="Path_858" data-name="Path 858" d="M8.669,97.562q18.242-3.313,20.139.085a1.305,1.305,0,0,1,.2.545q.415,2-4,8.629-.7,1.042-1.714,2.6t-1.742,2.687q-.731,1.131-1.091,1.612l-1.318,2.069,5.263-1.206q1.4-.337,3.26-.675a7.329,7.329,0,0,1,3.215,0,4.279,4.279,0,0,1,3.17,3.334,4.69,4.69,0,0,1-1.042,3.849q-1.168,1.46-13.106,3.711-6.907,1.255-9.076.984a7.389,7.389,0,0,1-3.168-.88,3.4,3.4,0,0,1-1.242-2.228q-.8-3.848,5.854-13.457l2.47-3.609-5.507.917q-3.913.627-4.823.668a3.35,3.35,0,0,1-1.735-.392,4.7,4.7,0,0,1-2.589-3.189A4.09,4.09,0,0,1,1.718,99.49q1.018-.85,6.952-1.928" transform="translate(0 -59.259)" fill="#1d1d1b"/>
    <path id="Path_859" data-name="Path 859" d="M102.916,86.38a4.349,4.349,0,0,1,2.911.3,6.6,6.6,0,0,1,3.286,3.895,11.632,11.632,0,0,1,.486,1.908,108.479,108.479,0,0,1,2.407,17.861,33.47,33.47,0,0,1-1.157,11.065q-1.4,4.539-4.239,6.384a9.657,9.657,0,0,1-3.5,1.3,14.533,14.533,0,0,1-8.24-.749,9.638,9.638,0,0,1-3.964-3.4,13.67,13.67,0,0,1-2.436-5.338,4.112,4.112,0,0,1,2.542-5.036l.177-.032.8-.562q-.016-.08-.492-.16-2.446-.72-5.35-4.1A24.568,24.568,0,0,1,82.7,103.9a33.142,33.142,0,0,1-2.38-6.846,4.259,4.259,0,0,1,1.778-4.731,4.528,4.528,0,0,1,4.339-.788A4.118,4.118,0,0,1,88.8,92.978a14.45,14.45,0,0,1,1.767,3.879q1.83,5.739,3.506,7.182a2.319,2.319,0,0,0,2,.8,2.189,2.189,0,0,0,1.412-1.171,14.239,14.239,0,0,0,1.626-5.244,16.767,16.767,0,0,0,.044-5.789,5.34,5.34,0,0,1,1.662-5.292,3.534,3.534,0,0,1,2.1-.963m-.319,26.009q-.1-.481-.542-.4a5.2,5.2,0,0,0-1.351.578,9.756,9.756,0,0,1-3.57,1.4l-1.948.354,1.051.641a3.383,3.383,0,0,1,1.461,1.731,26.132,26.132,0,0,0,1.236,2.645,1.024,1.024,0,0,0,.982.529l.266-.048q2.3-.418,2.409-5.678.023-1.667.006-1.748" transform="translate(-49.535 -53.294)" fill="#1d1d1b"/>
    <path id="Path_860" data-name="Path 860" d="M187.07,64.392a2.858,2.858,0,0,1,1.887.239,6.141,6.141,0,0,1,1.854,1.41,4.607,4.607,0,0,1,1.018,1.811q.3,1.026,1.249,5.6a97.621,97.621,0,0,1,1.881,17.541q.113,8.547-1.565,12.428a10.673,10.673,0,0,1-3.422,4.114,12.547,12.547,0,0,1-5.358,2.3,10.562,10.562,0,0,1-6.3-.686,9.219,9.219,0,0,1-3.336-2.8,9.372,9.372,0,0,1-1.98-3.8,2.309,2.309,0,0,1-.022-.329,2.3,2.3,0,0,0-.039-.409,4.057,4.057,0,0,1,1.213-2.8,5.307,5.307,0,0,1,2.945-1.533,5.04,5.04,0,0,1,3.392.631,3.546,3.546,0,0,1,1.991,2.3q.116.561.266.617t.559-.185q1.334-.658,1.717-4.138a33.277,33.277,0,0,0-.2-8.948q-.067-.321-.664.121a14.513,14.513,0,0,0-1.475,1.308q-.877.866-1.11,1.075a13.648,13.648,0,0,1-6.117,2.858,9.837,9.837,0,0,1-8.09-2.024,15.476,15.476,0,0,1-5.21-8.536l-.381-1.844a7.573,7.573,0,0,1-.065-2.982q1.126-6.11,10.247-7.767a39.114,39.114,0,0,1,6.508-.516l3.5.03.886-1.492q1.916-3.176,4.218-3.594M175.433,78.316a6.835,6.835,0,0,0-3.091,1.268,1.972,1.972,0,0,0-.928,1.957,3.061,3.061,0,0,0,3.541,2.018q1.954-.771,3.056-3.882l.515-1.508-1.112-.047a9.4,9.4,0,0,0-1.981.193" transform="translate(-99.826 -39.741)" fill="#1d1d1b"/>
    <path id="Path_861" data-name="Path 861" d="M271.921,44.856a2.858,2.858,0,0,1,1.887.239,6.146,6.146,0,0,1,1.853,1.41,4.607,4.607,0,0,1,1.018,1.811q.3,1.026,1.249,5.6a97.62,97.62,0,0,1,1.881,17.541q.113,8.547-1.565,12.428A10.668,10.668,0,0,1,274.822,88a12.547,12.547,0,0,1-5.358,2.3,10.562,10.562,0,0,1-6.3-.686,9.219,9.219,0,0,1-3.336-2.8,9.372,9.372,0,0,1-1.98-3.8,2.3,2.3,0,0,1-.022-.329,2.3,2.3,0,0,0-.039-.409,4.055,4.055,0,0,1,1.213-2.8,5.308,5.308,0,0,1,2.944-1.533,5.039,5.039,0,0,1,3.392.631,3.546,3.546,0,0,1,1.991,2.3q.116.561.266.617t.559-.185q1.334-.658,1.717-4.138a33.276,33.276,0,0,0-.2-8.948q-.066-.321-.664.121a14.515,14.515,0,0,0-1.475,1.308q-.877.866-1.11,1.075a13.645,13.645,0,0,1-6.116,2.858,9.836,9.836,0,0,1-8.09-2.024,15.476,15.476,0,0,1-5.21-8.536l-.381-1.844a7.573,7.573,0,0,1-.065-2.982q1.126-6.11,10.246-7.767a39.158,39.158,0,0,1,6.508-.517l3.5.03.886-1.492q1.916-3.176,4.218-3.594M260.283,58.78a6.833,6.833,0,0,0-3.091,1.268,1.971,1.971,0,0,0-.928,1.957,3.061,3.061,0,0,0,3.541,2.019q1.954-.771,3.056-3.882l.515-1.508-1.112-.047a9.4,9.4,0,0,0-1.981.193" transform="translate(-152.243 -27.673)" fill="#1d1d1b"/>
    <path id="Path_862" data-name="Path 862" d="M265.331,164.994a2.2,2.2,0,0,1,1.1.123,1.584,1.584,0,0,1,.832.7,71.5,71.5,0,0,1,1.831,7.336q1.351,6.113,1.647,7.765a3.007,3.007,0,0,1,0,1.691,1.839,1.839,0,0,1-1.523,1.049,1.935,1.935,0,0,1-1.878-.731,1.8,1.8,0,0,1-.377-.863q-.107-.6-.55-.164a7.8,7.8,0,0,1-1.353.857,8.739,8.739,0,0,1-1.569.683q-.569.143-.787.173a3.72,3.72,0,0,1-3.237-1.057,5.682,5.682,0,0,1-1.517-3.08,6.551,6.551,0,0,1,.2-3.274q1.091-3.259,5.194-3.806l1.41-.222-.592-2.9q-.178-.788-.361-1.813a2.8,2.8,0,0,1-.005-1.488,1.542,1.542,0,0,1,.589-.654,2.29,2.29,0,0,1,.945-.329m-1.724,10.956q-2.069.276-1.68,2.458l.083.463a3.876,3.876,0,0,0,.334,1.038.112.112,0,0,0,.078.024,3.675,3.675,0,0,0,1.2-.786,9.6,9.6,0,0,0,1.364-1.315,4.184,4.184,0,0,0,.627-.862,1.026,1.026,0,0,0,.045-.581l-.083-.463-.859-.021a6.635,6.635,0,0,0-1.107.046" transform="translate(-159.279 -101.913)" fill="#1d1d1b"/>
    <path id="Path_863" data-name="Path 863" d="M291.783,168.126a1.679,1.679,0,0,1,.2-.043,2.121,2.121,0,0,1,1.568.349,1.989,1.989,0,0,1,.814,1.329,4.158,4.158,0,0,1,.009.879,1.855,1.855,0,0,1-.562,1.123,1.964,1.964,0,0,1-1.115.521,2.225,2.225,0,0,1-1.722-.48,1.7,1.7,0,0,1-.648-1.132,2.471,2.471,0,0,1,.237-1.588,1.6,1.6,0,0,1,1.062-.92,1.636,1.636,0,0,0,.16-.038m.959,5.472a1.875,1.875,0,0,1,1.782.608,1.973,1.973,0,0,1,.437.991q.065.363.577,4.9.349,3.4.321,4.085a1.61,1.61,0,0,1-.537,1.154,1.7,1.7,0,0,1-1.042.41,2.091,2.091,0,0,1-1.908-.693,1.763,1.763,0,0,1-.383-.9q-.095-.529-.286-2.229-.052-.5-.271-2.349t-.264-2.519a10.556,10.556,0,0,1-.066-2.241,1.407,1.407,0,0,1,.733-.893,2.194,2.194,0,0,1,.909-.324" transform="translate(-179.324 -103.819)" fill="#1d1d1b"/>
    <path id="Path_864" data-name="Path 864" d="M310.512,173.661a7.775,7.775,0,0,1,2.377-.013,8.033,8.033,0,0,1,1.788.54,3.159,3.159,0,0,1,1.11.7,1.75,1.75,0,0,1,.335.835A1.541,1.541,0,0,1,315.9,177a2.027,2.027,0,0,1-1.425.765,2.212,2.212,0,0,1-1.336-.194,2.824,2.824,0,0,0-1.734-.344,2.327,2.327,0,0,0-.758.236q-.357.183-.4.358-.03.038.262.219t.661.369a20.6,20.6,0,0,1,2.26,1.306,14.558,14.558,0,0,1,1.992,1.477,6.261,6.261,0,0,1,2.235,3.356,3.276,3.276,0,0,1-.78,2.71,5.72,5.72,0,0,1-3.777,1.959,6.712,6.712,0,0,1-1.1.079,5.744,5.744,0,0,1-3.121-.717,2.947,2.947,0,0,1-1.427-2.059,3.4,3.4,0,0,1-.039-.841q.095-2.178,1.8-2.406a2.094,2.094,0,0,1,1.49.326,1.838,1.838,0,0,1,.8,1.263l.106.595.562.027a1.44,1.44,0,0,0,.369-.015q.945-.126.821-.82a.964.964,0,0,0-.234-.476,5.98,5.98,0,0,0-1.157-.962,9.893,9.893,0,0,0-1.593-.9,7.913,7.913,0,0,1-3.918-3,3.515,3.515,0,0,1-.365-1,3.286,3.286,0,0,1,.537-2.406,5.028,5.028,0,0,1,2.271-1.859,6.727,6.727,0,0,1,1.6-.383" transform="translate(-189.064 -107.22)" fill="#1d1d1b"/>
    <path id="Path_865" data-name="Path 865" d="M338.42,162.585a2.155,2.155,0,0,1,1.849.565,4.209,4.209,0,0,1,.729,2l.331,1.647.521,0a16.05,16.05,0,0,0,1.682-.157,2.973,2.973,0,0,1,2.587.535,1.82,1.82,0,0,1-.193,2.665,3.321,3.321,0,0,1-1.345.382l-.8.107-1.712.195.327,1.209a29.244,29.244,0,0,0,1.132,3.317q.7,1.718.951,1.684.4-.053.525-1.017a5.139,5.139,0,0,0-.091-1.342,2.031,2.031,0,0,1,.1-1.3,1.871,1.871,0,0,1,1.517-1.082,2.066,2.066,0,0,1,1.824.636,2.716,2.716,0,0,1,.556,1.448q.661,3.7-1.846,5.694a4.611,4.611,0,0,1-2.194,1.037,2.934,2.934,0,0,1-2.314-.672q-2.393-1.948-4.209-8.372l-.28-.944-.508.068a1.891,1.891,0,0,1-.973-.141,1.979,1.979,0,0,1-.784-.539,1.7,1.7,0,0,1-.323-.769,1.591,1.591,0,0,1,.211-1.315,1.825,1.825,0,0,1,1.225-.84q.182-.025.18-.244a12.276,12.276,0,0,0-.191-1.277,5.966,5.966,0,0,1-.137-1.809,1.525,1.525,0,0,1,.615-.928,1.944,1.944,0,0,1,1.036-.443" transform="translate(-207.217 -100.423)" fill="#1d1d1b"/>
    <path id="Path_866" data-name="Path 866" d="M371.847,166.856a2.334,2.334,0,0,1,1.167.081,2.055,2.055,0,0,1,.711.548,1.564,1.564,0,0,1,.408.724q.036.2.1.155.073-.009.383-.355a4.428,4.428,0,0,1,2.776-1.318,4.62,4.62,0,0,1,1.911.084q2.011.644,2.73,3.425a6.937,6.937,0,0,1,.167.722,1.024,1.024,0,0,1-.191.8,1.987,1.987,0,0,1-1.468.94l-.254.034a1.976,1.976,0,0,1-1.4-.439,2.05,2.05,0,0,1-.729-1.273c-.051-.286-.1-.427-.149-.42-.028-.019-.073.01-.134.086a2.533,2.533,0,0,0-.607,1.806q-.014.544.289,3.075a15.5,15.5,0,0,1,.231,2.541,1.778,1.778,0,0,1-.513,1.084,2,2,0,0,1-1.171.731q-1.561.208-3.252-3.22a37.011,37.011,0,0,1-2.009-5.214q-.465-1.562-.583-2.223a1.879,1.879,0,0,1,.536-2,2.123,2.123,0,0,1,1.048-.377" transform="translate(-228.694 -102.938)" fill="#1d1d1b"/>
    <path id="Path_867" data-name="Path 867" d="M404.349,153.111a1.631,1.631,0,0,1,.2-.044,2.12,2.12,0,0,1,1.568.349,1.989,1.989,0,0,1,.814,1.329,4.2,4.2,0,0,1,.008.879,1.854,1.854,0,0,1-.562,1.123,1.966,1.966,0,0,1-1.115.521,2.224,2.224,0,0,1-1.722-.48,1.7,1.7,0,0,1-.648-1.132,2.473,2.473,0,0,1,.237-1.588,1.6,1.6,0,0,1,1.062-.92c.024,0,.078-.016.161-.038m.959,5.472a1.876,1.876,0,0,1,1.782.608,1.969,1.969,0,0,1,.437.991q.065.363.577,4.9.348,3.405.321,4.085a1.608,1.608,0,0,1-.537,1.154,1.7,1.7,0,0,1-1.042.41,2.093,2.093,0,0,1-1.909-.693,1.763,1.763,0,0,1-.383-.9q-.095-.529-.287-2.229-.052-.5-.271-2.349t-.264-2.52a10.53,10.53,0,0,1-.066-2.241,1.409,1.409,0,0,1,.733-.893,2.2,2.2,0,0,1,.909-.324" transform="translate(-248.862 -94.543)" fill="#1d1d1b"/>
    <path id="Path_868" data-name="Path 868" d="M416.156,143.831a2.62,2.62,0,0,1,1.276.067,1.414,1.414,0,0,1,.9.878,39.88,39.88,0,0,1,.826,4,20.021,20.021,0,0,0,.836,3.847l.03-.038a13.778,13.778,0,0,1,2.534-2.673,3.363,3.363,0,0,1,1.552-.884,2.116,2.116,0,0,1,1.5.274,1.718,1.718,0,0,1,.732,1.188l.042.231a1.492,1.492,0,0,1-.176.886,8.609,8.609,0,0,1-1.164,1.187q-.352.318-1.233,1.213l-.656.7.8.536a9.285,9.285,0,0,1,1.891,1.846,9.7,9.7,0,0,0,1.638,1.676,2.142,2.142,0,0,1,.938,1.3,2.389,2.389,0,0,1-.083.992,1.219,1.219,0,0,1-.587.67,2.634,2.634,0,0,1-1.081.4,1.992,1.992,0,0,1-.907-.082,6.476,6.476,0,0,1-2.628-2.221,5.438,5.438,0,0,0-1.916-1.774l-.435-.145.267,1.081q.178.788.608,2.152a6.6,6.6,0,0,1,.172.755,1.749,1.749,0,0,1-.448,1.651,1.929,1.929,0,0,1-1.128.557,2.037,2.037,0,0,1-1.6-.43,1.642,1.642,0,0,1-.617-.747,24.755,24.755,0,0,1-.7-2.461q-.428-1.567-1.485-7.483a73.517,73.517,0,0,1-1.194-7.725,1.718,1.718,0,0,1,.333-.738,1.665,1.665,0,0,1,.556-.531,1.776,1.776,0,0,1,.605-.148" transform="translate(-256.157 -88.826)" fill="#1d1d1b"/>
    <path id="Path_869" data-name="Path 869" d="M452.981,147.3a2.155,2.155,0,0,1,1.849.566,4.206,4.206,0,0,1,.729,2l.331,1.647.521,0a16.07,16.07,0,0,0,1.682-.157,2.974,2.974,0,0,1,2.587.535,1.82,1.82,0,0,1-.193,2.665,3.316,3.316,0,0,1-1.344.382l-.8.107-1.712.195.327,1.208a29.222,29.222,0,0,0,1.132,3.317q.7,1.718.951,1.683.4-.053.525-1.017a5.135,5.135,0,0,0-.091-1.341,2.03,2.03,0,0,1,.1-1.3,1.871,1.871,0,0,1,1.517-1.082,2.066,2.066,0,0,1,1.824.636,2.721,2.721,0,0,1,.556,1.449q.661,3.7-1.846,5.694a4.611,4.611,0,0,1-2.194,1.037,2.933,2.933,0,0,1-2.314-.673q-2.393-1.948-4.209-8.371l-.28-.944-.508.068a1.892,1.892,0,0,1-.973-.141,1.979,1.979,0,0,1-.784-.539,1.705,1.705,0,0,1-.323-.768,1.591,1.591,0,0,1,.211-1.315,1.826,1.826,0,0,1,1.225-.84c.121-.016.181-.1.18-.244a12.285,12.285,0,0,0-.191-1.277,5.964,5.964,0,0,1-.137-1.808,1.523,1.523,0,0,1,.615-.928,1.944,1.944,0,0,1,1.036-.443" transform="translate(-277.987 -90.981)" fill="#1d1d1b"/>
    <path id="Path_870" data-name="Path 870" d="M351.143,82.765a6.742,6.742,0,0,1,.416-1.492,15.748,15.748,0,0,0,.579-2.063,9.883,9.883,0,0,0,.172-2.11c-.007-.452-.01-.9-.014-1.357a.653.653,0,0,1,.005-.221.806.806,0,0,0-.093-.68,2.806,2.806,0,0,1-.179-2.016c.049-.2.074-.4.126-.6a.786.786,0,0,0,.018-.527.277.277,0,0,1,0-.192.5.5,0,0,0-.065-.421c-.137-.307-.273-.615-.391-.929a1.989,1.989,0,0,1-.012-1.285,1.066,1.066,0,0,0-.083-.786c-.069-.149-.148-.294-.214-.444a.982.982,0,0,1-.025-.791.472.472,0,0,0-.019-.4c-.123-.286-.235-.578-.345-.87a1.154,1.154,0,0,1-.061-.631.289.289,0,0,0-.088-.26c-.178-.224-.351-.454-.506-.695a.753.753,0,0,0-.332-.312,2.559,2.559,0,0,1-.355-.231l.114-.161a.207.207,0,0,0-.07-.021c-.423.061-.844.14-1.268.184a12.081,12.081,0,0,1-4.662-.43,14.1,14.1,0,0,1-8.171-5.987c-.055-.085-.106-.172-.159-.258,0,.027-.007.045-.007.045s-.2,2.314-.276,4.983a28.094,28.094,0,0,0,1,8.139,17.711,17.711,0,0,0,5,8.952,18.924,18.924,0,0,0,9.917,4.464h.013c.005-.2.009-.4.03-.6" transform="translate(-207.05 -35.076)" fill="#1d1d1b"/>
    <path id="Path_871" data-name="Path 871" d="M344.651,8.536A10.26,10.26,0,0,1,348.94,8.1a14.516,14.516,0,0,1,9.817,5.143,11.782,11.782,0,0,1,1.807,2.813c.027.058.06.114.1.2.187-.139.366-.265.538-.4a2.875,2.875,0,0,1,1.352-.616c.266-.041.523-.138.788-.193a5.339,5.339,0,0,1,1.694-.066c.89.1,1.779.212,2.668.319.178.021.355.045.544.068l.135-.3a13.1,13.1,0,0,1,5.285-6.051A9.8,9.8,0,0,1,377.6,7.636a7.285,7.285,0,0,1,4.438.764,31.587,31.587,0,0,0-6.129-4.88C373.559,1.959,369.6.854,367.43.334s-4.681-.5-10.015.554c-5.482,1.088-8.571,1.189-10.847,2.719-1.428.96-3.149,5.43-3.149,5.43l0,.012a10.007,10.007,0,0,1,1.236-.513" transform="translate(-212.146 0)" fill="#1d1d1b"/>
    <path id="Path_872" data-name="Path 872" d="M407.417,86.333c-.256.467.637.9,1.342.922a5.908,5.908,0,0,0,1.979-.247,5.34,5.34,0,0,0,1.361-.466,6.349,6.349,0,0,0,.961-.612,4.036,4.036,0,0,0,2.235-2.653,8.866,8.866,0,0,1,1.772-2.66,5.085,5.085,0,0,0-2.018,2.209,3.81,3.81,0,0,1-.768,1.331,8.735,8.735,0,0,1-1.979.425,21.1,21.1,0,0,1-3.337-.2,2.123,2.123,0,0,0-1.352-.071,1,1,0,0,0-.5,1.483,1.324,1.324,0,0,1,.029-.424,1.06,1.06,0,0,0,.127.116,3.628,3.628,0,0,1,1.032,1.24h0a2.181,2.181,0,0,1-.882-.389m2.54.3c-.123.023-.514.07-.6.071a.431.431,0,0,1-.313-.133.8.8,0,0,1-.11-.3A.643.643,0,0,1,409,86.09a.922.922,0,0,0,.212.068,1.933,1.933,0,0,0,.492-.011c.112-.038.256-.07.256-.07a.538.538,0,0,0,.089.084.694.694,0,0,0,.145.023.381.381,0,0,0-.078.118.371.371,0,0,0,.017.192.637.637,0,0,1,.061.1l-.233.044m2.571-1.536c0-.046.076-.063.076-.063s.247-.041.352-.07a1.682,1.682,0,0,1,.415-.063c0,.02-.069.1-.1.127s-.247.14-.293.172a2.432,2.432,0,0,1-.325.131s-.134.037-.133.013.015-.2.013-.247m.21.3c.04-.023.212-.117.232-.13a1.324,1.324,0,0,1,.131-.072c.015,0,0,.068-.085.133a4.166,4.166,0,0,1-.453.324c-.039,0-.057-.136-.057-.136s.192-.1.232-.119m-1.407.081c0-.063.008-.147.008-.147a.526.526,0,0,1,.205-.171c.044-.018.342.012.485-.01a2.16,2.16,0,0,0,.346-.063c.036-.021.094-.018.069.094a.592.592,0,0,1-.169.349c-.1.068-.192.118-.283.172a.951.951,0,0,1-.35.135c-.078,0-.307-.03-.323-.1a1.105,1.105,0,0,1,.013-.255m.175.445a1.066,1.066,0,0,0,.353-.056c.073-.036.419-.2.46-.228a.931.931,0,0,1,.11-.067.088.088,0,0,1-.006.13,2.844,2.844,0,0,1-.3.227,2.262,2.262,0,0,1-.345.223c-.07.026-.3.132-.334.111a.522.522,0,0,1-.123-.193.587.587,0,0,1-.02-.158c.039-.028.1.01.2.01m-.224.377a1.667,1.667,0,0,1-.516.184,2.122,2.122,0,0,1-.5.078c-.062-.038-.095-.157-.024-.314.028-.061.105-.071.224-.073a1.769,1.769,0,0,0,.4-.083c.06-.031.339-.155.339-.155a.659.659,0,0,0,.056.2.146.146,0,0,1,.023.16m-1.319-1a1.074,1.074,0,0,1,.385-.24,1.027,1.027,0,0,1,.41-.053c.1.015.342.027.388.083a.28.28,0,0,1,.085.274,2.507,2.507,0,0,1-.045.4.647.647,0,0,1-.38.236,1.458,1.458,0,0,1-.553.086.326.326,0,0,1-.258-.24,1.749,1.749,0,0,1-.064-.366c.012-.063.033-.18.033-.18m-1.258-.441a.914.914,0,0,1,.27-.192,1.485,1.485,0,0,1,.415.021.727.727,0,0,1,.288.228,1.634,1.634,0,0,1,.18.321,1.926,1.926,0,0,1-.017.335,3.442,3.442,0,0,0,.065.373c.008.045-.062.056-.239.076a3.043,3.043,0,0,1-.525.008.462.462,0,0,1-.3-.108.936.936,0,0,1-.17-.417,2.724,2.724,0,0,0-.072-.414.255.255,0,0,1,.109-.23m-.941.782c-.071-.234-.113-.378-.133-.477a.623.623,0,0,1,.011-.225.319.319,0,0,1,.212-.117,1,1,0,0,1,.361.043.632.632,0,0,1,.277.249,3.857,3.857,0,0,1,.078.494,1.153,1.153,0,0,0,.065.263.86.86,0,0,0,.105.157,2.19,2.19,0,0,1-.279.089.925.925,0,0,1-.354.011,1.188,1.188,0,0,1-.343-.488m.384.592a1.765,1.765,0,0,0,.339.006,2.086,2.086,0,0,0,.336-.126s.008.164.018.207a1.026,1.026,0,0,0,.089.222c.024.026.136.16.136.16a2.3,2.3,0,0,1-.345-.033,1.307,1.307,0,0,1-.375-.183.805.805,0,0,1-.2-.252" transform="translate(-251.399 -49.802)" fill="#1d1d1b"/>
    <path id="Path_873" data-name="Path 873" d="M404.959,87.166c-1.42,1.166.406,3.212.406,3.212s-1.021-1.541-.274-2.443,4.318-.135,4.318-.135-2.808-1.983-4.451-.635" transform="translate(-249.831 -53.557)" fill="#1d1d1b"/>
    <path id="Path_874" data-name="Path 874" d="M425.834,46.467s-5.229-.048-7.857,1.153a18.263,18.263,0,0,0-3.871,2.444c-.477.339-.795.582-.795.582a6.634,6.634,0,0,0,1.271,1.727,4.534,4.534,0,0,0,7.31-2.323,6.184,6.184,0,0,0,.178-2.667c1.8-.528,3.763-.917,3.763-.917m-9.428,4.363a1,1,0,0,1-.966-1.04c0-.019,0-.037,0-.056l.639-.3a.528.528,0,0,0,.021.438.6.6,0,0,0,1.063-.562.519.519,0,0,0-.287-.243l.135-.061a1,1,0,0,1-.611,1.825" transform="translate(-255.326 -28.705)" fill="#1d1d1b"/>
    <path id="Path_875" data-name="Path 875" d="M357.982,49.2c-.3-.123-.591-.23-.878-.328-.548-.225-1.114-.437-1.675-.614a11.051,11.051,0,0,0-5.4-.212l1.919.481a5.178,5.178,0,0,0-.14.606c-.055.386-.407,1.2.717,3.041s3.6,2.59,6.151,2.386,4.094-2.789,4.094-2.789a20.785,20.785,0,0,0-4.786-2.572m1,2.967a1.28,1.28,0,0,1-1.035-1.967l1.054.352a.609.609,0,0,0-.067.656.632.632,0,0,0,.862.235.662.662,0,0,0,.353-.5l.156.053a1.281,1.281,0,0,1-1.323,1.174" transform="translate(-216.231 -29.533)" fill="#1d1d1b"/>
    <path id="Path_876" data-name="Path 876" d="M411.158,33.73a10.491,10.491,0,0,1,.394,3.967,12.97,12.97,0,0,1-5.621,9.487,10.157,10.157,0,0,1-4.185,1.652,8.421,8.421,0,0,1-.987.081c-.2-.063-.421-.132-.668-.2a7.4,7.4,0,0,0-1.989-1.828,9.177,9.177,0,0,1-4.483-6.1c-.559,2.546,2.165,5.093,3.034,5.8a17.214,17.214,0,0,1,1.819,1.725,9.333,9.333,0,0,0-2.566-.221c-4.352.4-3.923,3.579-3.923,3.579s1.336-2.42,3.5-2.61a14.506,14.506,0,0,1,3.917.338c.548.679.959,1.25,1.267,1.6.494.555,1.017.578,1.68.051h0a.663.663,0,0,0,.084-.068,4.8,4.8,0,0,0,.374-.357.6.6,0,0,1,.174-.1c.237-.079.474-.208.639-.11s.355.24.2.66a5.693,5.693,0,0,1-.328.724,1.567,1.567,0,0,1,.723-.375c.3,0,.59-.009.594.254a1.411,1.411,0,0,1-.326.834,2.537,2.537,0,0,0-.5.32,11.236,11.236,0,0,0-2.011,3.093,13.664,13.664,0,0,1,2.039-2.242,10.063,10.063,0,0,1-.3,1.993,5.808,5.808,0,0,1-1.668,2.576,16.317,16.317,0,0,1-3.084,1.944,5.415,5.415,0,0,1-2.656.393,3.808,3.808,0,0,1-2.736-1.452c-.591-.845-1.493-1.522-1.7-1.92a1.73,1.73,0,0,1-.282-1.188c.107-.354.179-.618.179-.618a4.1,4.1,0,0,1-.578-.845,5.045,5.045,0,0,0-.831-1.707,14.431,14.431,0,0,0-2.8-2.722,15.7,15.7,0,0,0-2.573-1.2S386.291,50,387.1,50.793a15.205,15.205,0,0,1,1.812,2.229c.128.2.26.39.371.589A1.877,1.877,0,0,1,389.446,55c-.038.168-.089.333-.13.5a.274.274,0,0,0,.1.306.474.474,0,0,1,.161.573.448.448,0,0,0,.037.381c.221.375.445.748.665,1.123.233.4.476.787.69,1.194a1.187,1.187,0,0,1,.091.934,3,3,0,0,1-.173.362c.006.008.011.018.016.027a9.9,9.9,0,0,1-2.035.7,9.549,9.549,0,0,1-3.3-.122,6.2,6.2,0,0,0,3.46.544,4.6,4.6,0,0,0,2.087-.941,1.691,1.691,0,0,1,.472,1.058,2.869,2.869,0,0,1-.359,1.924c-.034.057-.059.119-.088.183-.418.146-.841.293-1.073.371a8.487,8.487,0,0,1-3.165.373,3.411,3.411,0,0,1-2.039-.723,4.213,4.213,0,0,0,1.588,1.092,5.764,5.764,0,0,0,3.668-.252,11.655,11.655,0,0,0,1.226-.634,1.4,1.4,0,0,1,.166,1,3.929,3.929,0,0,1-.334,1.13c-.03.074-.054.151-.091.256a.634.634,0,0,1,.13.009c-.272.125-.531.243-.683.31a5.268,5.268,0,0,1-2.457.4,2.323,2.323,0,0,1-1.575-.706s.684.945,1.222,1.079a3.556,3.556,0,0,0,2.846-.282,8.664,8.664,0,0,0,.928-.623,1.319,1.319,0,0,1,.156.317,2.465,2.465,0,0,1,.041,1.668c-.018.055-.03.111-.049.166a.292.292,0,0,0,0,.226h0l4.4-.882a34.3,34.3,0,0,0,7.206-2.595,23.92,23.92,0,0,0,6.7-4.944,20.1,20.1,0,0,0,5.075-12.533,26.931,26.931,0,0,0-3.878-14.239" transform="translate(-237.752 -20.837)" fill="#1d1d1b"/>
  </g>
</svg>
