<svg xmlns="http://www.w3.org/2000/svg" xmlns:xlink="http://www.w3.org/1999/xlink" width="33.176" height="33.176" viewBox="0 0 33.176 33.176">
  <defs>
    <clipPath id="clip-path">
      <rect id="Rectangle_3" data-name="Rectangle 3" width="33.176" height="33.176" transform="translate(0 0)" fill="none"/>
    </clipPath>
  </defs>
  <g id="Group_3" data-name="Group 3" transform="translate(0 0)" clip-path="url(#clip-path)">
    <path id="Path_4" data-name="Path 4" d="M16.588,0A16.588,16.588,0,1,0,33.175,16.587,16.588,16.588,0,0,0,16.588,0M27.5,9.819a.546.546,0,0,1-.115.345,8.652,8.652,0,0,1-1.734,1.8c-.1.074-.264.151-.264.291,0,3.582-.915,7.16-3.526,9.754a13.123,13.123,0,0,1-12.74,2.979,12.147,12.147,0,0,1-2.464-.986c-.261-.142-.517-.289-.768-.455-.064-.052-.111-.1-.057-.133s.1-.029.294,0a8.687,8.687,0,0,0,3.686-.471,5.625,5.625,0,0,0,2.427-1.287c.009-.014.019-.014.029-.028-.162-.038-.323-.038-.484-.066A4.759,4.759,0,0,1,8.225,18.59c-.047-.118,0-.18.123-.156a5.1,5.1,0,0,0,1.691-.053,2.672,2.672,0,0,1-.573-.175,4.583,4.583,0,0,1-2.824-3.653,2.732,2.732,0,0,1-.028-.512c.009-.118.061-.156.166-.09a4.546,4.546,0,0,0,1.724.483c-.194-.151-.374-.317-.549-.483A4.532,4.532,0,0,1,7.183,8.6c.085-.128.142-.128.246-.009a13.894,13.894,0,0,0,8.937,4.549c.1.014.1,0,.09-.1a4.775,4.775,0,0,1,.047-1.868A4.523,4.523,0,0,1,17.386,9.4a4.731,4.731,0,0,1,1.478-1.208A4.64,4.64,0,0,1,20.7,7.669a4.389,4.389,0,0,1,1.932.312,4.579,4.579,0,0,1,1.26.772,2,2,0,0,1,.227.232.176.176,0,0,0,.18.048,11.218,11.218,0,0,0,2.6-1,.123.123,0,0,1,.116-.009c.038.028.024.076,0,.114a4.015,4.015,0,0,1-.728,1.327c-.208.259-.726.9-1.079.957A8.951,8.951,0,0,0,27.406,9.8c.088-.04.089-.057.089,0Z"/>
  </g>
</svg>
